Description

Sinopse e detalhes

Durante a Guerra Civil, um jovem soldado (Kevin Costner) pratica uma ato ousado, é considerado herói e vai servir por sua escolha em um lugar com forte predominância do povo Sioux. Com o tempo, ele assimila os costumes dos nativos, acontecendo uma aculturação às avessas.

Format : Matroska
Format version : Version 2
File size : 1.02 GiB
Duration : 3h 1mn
Overall bit rate : 805 Kbps
Encoded date : UTC 2013-05-06 18:25:44
Writing application : mkvmerge v5.8.0 ('No Sleep / Pillow') built on Sep 2 2012 15:37:04
Writing library : libebml v1.2.3 + libmatroska v1.3.0

Video
ID : 1
Format : AVC
Format/Info : Advanced Video Codec
Format profile : High@L4.1
Format settings, CABAC : Yes
Format settings, ReFrames : 4 frames
Muxing mode : Header stripping
Codec ID : V_MPEG4/ISO/AVC
Duration : 3h 1mn
Bit rate : 565 Kbps
Width : 720 pixels
Height : 304 pixels
Display aspect ratio : 2.35:1
Frame rate mode : Constant
Frame rate : 23.976 fps
Color space : YUV
Chroma subsampling : 4:2:0
Bit depth : 8 bits
Scan type : Progressive
Bits/(Pixel*Frame) : 0.108
Stream size : 732 MiB (70%)
Title : Dança Com Lobos ( by fantasma )
Writing library : x264 core 130 r2273 b3065e6
Encoding settings : cabac=1 / ref=3 / deblock=1:0:0 / analyse=0x3:0x113 / me=hex / subme=7 / psy=1 / psy_rd=1.00:0.00 / mixed_ref=1 / me_range=16 / chroma_me=1 / trellis=1 / 8x8dct=1 / cqm=0 / deadzone=21,11 / fast_pskip=1 / chroma_qp_offset=-2 / threads=3 / lookahead_threads=1 / sliced_threads=0 / nr=0 / decimate=1 / interlaced=0 / bluray_compat=0 / constrained_intra=0 / bframes=3 / b_pyramid=2 / b_adapt=1 / b_bias=0 / direct=1 / weightb=1 / open_gop=0 / weightp=2 / keyint=240 / keyint_min=23 / scenecut=40 / intra_refresh=0 / rc_lookahead=40 / rc=crf / mbtree=1 / crf=23.0 / qcomp=0.60 / qpmin=0 / qpmax=69 / qpstep=4 / vbv_maxrate=62500 / vbv_bufsize=78125 / crf_max=0.0 / nal_hrd=none / ip_ratio=1.40 / aq=1:1.00
Language : Portuguese
Default : Yes
Forced : No

Audio
ID : 2
Format : AC-3
Format/Info : Audio Coding 3
Mode extension : CM (complete main)
Format settings, Endianness : Big
Muxing mode : Header stripping
Codec ID : A_AC3
Duration : 3h 1mn
Bit rate mode : Constant
Bit rate : 224 Kbps
Channel(s) : 2 channels
Channel positions : Front: L R
Sampling rate : 48.0 KHz
Bit depth : 16 bits
Compression mode : Lossy
Stream size : 290 MiB (28%)
Title : by fantasma
Language : Portuguese
Default : Yes
Forced : No

Text #1
ID : 3
Format : VobSub
Muxing mode : zlib
Codec ID : S_VOBSUB
Codec ID/Info : The same subtitle format used on DVDs
Title : by fantasma
Language : Portuguese
Default : No
Forced : No

Text #2
ID : 4
Format : VobSub
Muxing mode : zlib
Codec ID : S_VOBSUB
Codec ID/Info : The same subtitle format used on DVDs
Title : by fantasma
Language : English
Default : No
Forced : No

Text #3
ID : 5
Format : VobSub
Muxing mode : zlib
Codec ID : S_VOBSUB
Codec ID/Info : The same subtitle format used on DVDs
Title : by fantasma
Language : Spanish
Default : No
Forced : No

Text #4
ID : 6
Format : UTF-8
Codec ID : S_TEXT/UTF8
Codec ID/Info : UTF-8 Plain Text
Title : Credito
Language : Portuguese
Default : Yes
Forced : No

Menu
00:00:00.000 : en:Chapter 01
00:04:36.000 : en:Chapter 02
00:11:21.500 : en:Chapter 03
00:17:39.500 : en:Chapter 04
00:23:12.000 : en:Chapter 05
00:29:50.000 : en:Chapter 06
00:38:47.500 : en:Chapter 07
00:49:57.000 : en:Chapter 08
00:58:07.934 : en:Chapter 09
01:03:22.934 : en:Chapter 10
01:10:44.934 : en:Chapter 11
01:20:13.934 : en:Chapter 12
01:26:40.934 : en:Chapter 13
01:34:06.934 : en:Chapter 14
01:44:06.934 : en:Chapter 15
01:54:37.967 : en:Chapter 16
02:02:02.467 : en:Chapter 17
02:11:50.467 : en:Chapter 18
02:22:39.967 : en:Chapter 19
02:29:12.967 : en:Chapter 20
02:35:12.967 : en:Chapter 21
02:42:44.467 : en:Chapter 22
02:47:49.467 : en:Chapter 23
02:51:55.901 : en:Chapter 24
02:56:08.901 : en:Chapter 25
03:00:57.401 : en:Chapter 26
